<?xml version="1.0"?>
<svg fill="#ffffff" id="Layer_1" data-name="Layer 1" xmlns="http://www.w3.org/2000/svg" viewBox="0 0 52.72 59">
  <defs>
    
  </defs>
  <g id="AQUAeh">
    <g>
      <path class="cls-1" d="M36.27,33.14c-.73-.77-.51-1.68-1.15-2.22-.18-.15-.23-.4-.26-.63l-.08-.51.02-.84-.04-1.05c.1-.23.13-.46.06-.75.03-.25-.11-.66-.35-.69-1.17.44-2.13.16-3.23.03-.28-.03-.52-.02-.7-.29-.08-.12-.38-.08-.52-.05l-1.06-.42c-.36-.14-.67-.17-.99-.36l-.83-.49-.88.03c-.4-.31-.84-.44-1.36-.43-.39-.35-.88-.59-1.42-.44-.51-.04-.98-.19-1.45-.32l-1.02-.28c-.25-.07-.65-.03-.91-.06l-.93-.12-1.01-.04c-.44-.18-.8-.24-1.31-.26-.27-.01-.67-.21-.95-.25l-.85-.12-1.32-.13c-.3-.03-1.42.3-1.73-.85-.08-.3.11-.87.35-1.02l1.17-.27c1.1-.25,1.47.41,1.91.36.62-.08,1.1-.01,1.64.27.51.05,1.01.15,1.5.34h1.86c.6-.02,1.06.01,1.63.16l1.79.46,1.18.31c.56.15,1.02.36,1.59.44l1.89.27c.47.07.93.35,1.36.54l.93.42,1.73.66c.3.11.52.23.84.28l.88.14c-.06-.58-.22-1.04-.62-1.4l-.78-.49-.27-.59c-.18-.4-.26-.9-.59-1.2-.25-.23-.46-.48-.58-.78l-.21-.11s0-.15,0-.24l-.64-.51-.88-1.13-.61-.6c-.35-.35-.83-.55-1.32-.69-.29-.08-.57-.32-.82-.42-.49-.19-.88-.34-1.31-.67l-.85-.4c-.36-.17-.77-.54-1.18-.29-.22.13-.3.15-.58.12l-1.76-.22-.21.13c-.06.04-.19-.13-.26-.16l-.61-.21-.02-.5c0-.05.18-.17.15-.21l-.18-.27c.64-.53,1.47-.7,2.29-.46.55.16,1.09.15,1.67.21.55.06,1.09.36,1.64.47.8.16,1.28.8,2.46.89.35.03.58.24.85.41l.96.61c.14.09.43.24.51.36.27.4.53.76.89,1.07.27.23.62.52.8.81.25.4.47.74.88,1.01.17.4.4.73.75,1.03l.55-.02c.41-.36,1.27-.3,1.56.22.39.29.6.78.61,1.28.33.55.43,1.1.31,1.74-.03.16.06.45.09.61.04.3.07.5.26.79l-.06.8c-.24.51-.26,1.03-.17,1.59-.26.51-.33,1.06-.17,1.62-.21.51-.12,1.01.21,1.41.04.39.21.69.49.92l.48.39c.08-.07.19-.28.16-.37s-.12-.19-.22-.31c.56-.75-.11-1.04.27-1.46.26-.28.12-.69.08-1.01.24-.35.52-.71.28-1.15l.3-.66c.25-.14.56-.12.83-.08.59.08,1.1.3,1.28.89.21.44.56.78,1.05.87.41.4.87.69,1.48.81l.21-1.39c.06-.37.18-.57,0-.94-.2-.41-.42-.77-.81-1.06l-.15-.66.64-.21c.51-.17,1.14.45,1.48,1.08l.32.6c-.07.24-.1.44-.03.65.21.63-.05.89.37,1.12.04.02.16.16.12.16l-.24.03c-.08,0-.28.07-.32.14-.17.28.51.45.35,1.22l-.22,1.04c-.17.13-.4.36-.42.59l-.91.14c-.17.03-.31.01-.48-.04-.27-.05-.48-.14-.61-.37-.38-.18-.71-.4-1.03-.67l-.65-.56c-.21-.18-.62-.42-.85-.12-.21.27-.41.62-.55.97-.08.2.2.52.38.66-.25.39-.3.75-.19,1.21l-.24.91-.41.53-.58.28c-.32.15-.4-.24-.54-.29-.53-.2-1.07-.44-1.43-.82l-.43-.46Z"></path>
      <path class="cls-1" d="M21.56,49.64c.29.23.47.37.82.47-.42.91.19.91.15,1.5-.05.72.4.96.77,1.92.08.23.28.37.41.55l.56.78c.33.46.23,1.19.34,1.29.18.17.5.29.77.37.16-.07.31-.32.39-.48l.22-.44c.18-.74.55-1.63.99-2.22.25-.3.57-.51.99-.5.45-.26.94-.3,1.47-.26.65.05,1.24.37,1.81.7.8.46.49,1.03,1.19,1.43.35.2.77.49,1.03.8.3.35.59.54,1.01.74.21.1.57.46.8.17.09-.73.7-.81.72-1.17l.08-1.59c.03-.57-.21-1.12-.31-1.68-.13-.72.11-1.5-.07-1.75-.17-.23-.23-.34-.16-.6s.16-.38.39-.51l.62-.38c.17-.1.32-.5.38-.71-.41-.13-.74-.23-1.06-.45l-.92-.64c-.26-.18-.43-.25-.42-.65.03-.81.28-.74.83-1.11.36-.24.99-.02,1.32.24.12.09.33.25.41.19l.25-.18c.07-.05.22.1.27.16l.8.93.66.56-.24.15c-.06.04-.05.2-.04.27l.08.36c.02.09.37.08.41,0l.17-.32.74-.11c.54-.08.44.84,1.55.78.07.19.22.35.44.36l.29-.48-.13-1.21c-.03-.32-.16-.58-.14-.89l.03-.61c.45-.01.51-.46.6-.41l.25.12,1.16-.28c.08-.07.13-.37.04-.41l-.38-.21c-.11-.06-.31-.12-.43-.14s-.28.18-.36.32c-.06-.09-.2-.24-.3-.24s-.32.11-.38.21c-.16.26-.41.32-.69.44l-.6.26c-.3.13-.45.03-.72-.12l-.8-.43-.73-.63-1.05-.66c-.56-.35-1.04-.74-1.74-.81-.18-.02-.53-.15-.69-.24l-.61-.52c-.32-.27-.63-.7-.5-1.14l.2-.7.67-.21c.72-.22,1.64.51,2.28.97l.52.37c.56.4,1.46.44,1.93.73.15.19.25.53.47.59.38.1.75-.15,1.08-.2.44-.07.83-.11,1.25-.26.26-.09.44,0,.71.04l.75.13.68.65c.24.22.43.44.76.52.8.21.73.83,1.35,1.25.24.16.29.42.34.72l.1.66-.45.5-.61.34-.58-.08c-.07,0-.31,0-.33.07l-.13.37c-.47.09-.72.45-.79.93-.04.31-.26.77-.13,1.06.17.37.12.54-.1.87-.13.18-.24.29-.47.43-.19.12-.44.5-.7.5-.41,0-.71.05-1.04.24l-.53-.19c-.38-.14-.72-.59-1.02-.85s-.55.1-.74.25l-.59.47c-.17.14-.38.21-.64.16-.55-.09-.45.79-.38,1.64.02.24-.16.39-.31.57-.12.14-.08,1.12.22,1.52l.05,1.56-.07.66-.46.33-.55.52-.74.48c-.09.06-.3.15-.31.25l-.04.28c0,.07-.23.04-.31.03-.35-.04-.81.03-1.13-.07l-.67-.22-.43-.51c-.23-.27-.37-.45-.72-.58-.19-.07-.49-.37-.58-.55l-.41-.86-.48-.13c-.31-.56-.93-.77-1.58-.83-.37-.03-.61.04-.89.26-.23.18-.58.4-.64.68-.08.39-.26.43-.6.58-.16.07,0,.48.22.61l-.54.52s.03.26.05.31l.12.46c-.27.38-.91.79-1.43.59l-.98-.37-.81-.32c-.45-.35-.63-.81-.88-1.25-.38-.69-.81-1.32-1.06-2.08-.31-.31-.58-.66-.64-1.13l-.66-.95-.02-1.09c0-.2-.27-.43-.44-.59-.04-.19-.11-.59-.05-.77l.15-.48c.1-.29.76-.5,1.03-.29Z"></path>
      <path class="cls-1" d="M19.83,46.7c-.18.59-1.05.17-1.86.71l-.63.41c-.45.3-.84.63-.9,1.18-.3.33-.41.72-.21,1.15-.17.39-.41.93-.85,1.07-.77-.25-1.16.21-1.8-.08l-1.33-.61-.29-.32c-.38-.03-.74.01-1.09.14-.5.2-1.05-.02-1.28-.52-.48-.18-.73-.63-.79-1.13l-.06-.56c-.05-.22-.09-.33.02-.56l-.16-.76c.04-.26.02-.43-.08-.65l.04-.44c.01-.12-.19-.27-.3-.34l-.56-.37c-.27-.18-.25-.67-.35-.96l-.1-.27c-.02-.06.1-.18.16-.23l1.09-.92c.29-.24.88-.12,1.23-.16.32-.19.63-.26.86.07,1.17.41,1.27.17,1.92-.28l.87-.6c.29-.2.57-.31.82-.52v-.28c0-.07-.19-.17-.25-.23-.19-.2-.39-.13-.65-.17l-1.06-.17c-.2.54-.55.63-1.01.54-.35-.07-.87.08-1.12-.28-.15-.23-.32-.41-.59-.53l-.71-.31-1.29-.51c-.19-.07-.35-.12-.45-.3-.19-.35-.45-.65-.72-.95.15-.2.23-.54.15-.82l.58-.47c.16-.13.37-.31.49-.48s.2-.47.4-.57l1.25-.68c.11-.2.26-.38.4-.57.27-.35.52-.81.67-1.24l.22-.61c.12-.33.27-.67.46-.93.27-.37.01-.72-.02-1.08-.06-.67-.18-1.27-.38-1.93l-.21-.69-.32-1.18-.21-.75c-.34-.48-.56-1.07-.28-1.61.11-.22.41-.36.59-.33.23.04.45.18.53.41.21.63,1,.16,1.04.28l.08.29c-.21.27-.2.52-.01.8-.19.33-.13.73.25.86.2.13.34.33.4.56l.19.73c.08.3.19.58.19.91s-.1.73.03,1.01l.39.86c-.27.96.29.9.31,1.15,0,.12-.14.26-.28.36s-.71,1.1-.7,1.43c.02.38-.06.56-.28.85-.28.37-.32.93-.34,1.38-.08.11-.23.32-.23.44,0,.14.17.35.29.46.27.4.57.7,1.04.82.34.41.81.55,1.26.77.3.15.52.29.88.33l.67.09,1.24.18.53.38,1.05.78c.09.07.19.28.22.37.04.11-.15.31-.18.43-.11.38-.26.63-.64.8s-.74.5-1.16.48c-.11,0-.38-.08-.45-.02s-.16.21-.24.35c-.37.02-.67.23-.73.58l-1.26,1.06c-.25.21-.58.39-.39.8l-.44.38c-.5.42-.8.42-1.5.31l-.16-.21c-.04-.06-.29-.01-.29.06.01.2.19.58.3.78-.06.1-.21.33-.15.41l.26.32c.47.57,1.64,1.71,2.01,1.74.11,0,.25-.24.23-.34l-.14-.56.15-.8c.25-1.34.78-.52,1.68-1.33.17-.16.56-.15.77-.25l1.39-.64c.92-.42,1.52-.29,1.42.04-.17.57.32.67.71.97l-.25.83Z"></path>
      <path class="cls-1" d="M26.65,49.67l-.21-.44c-.41-.29-.67-.66-1.02-1.01l-.59-.6c-.13-.14-.31-.26-.4-.41l-.33-.6c-.11-.2-.33-.49-.51-.64-.27-.22-.4-.49-.62-.74-.49-.55-.95-1.07-1.36-1.69-.17-.25-.4-.55-.5-.82-.15-.4-.39-.63-.69-.91-.12-.27-.15-.84-.37-1.08-.19-.13-.52-.28-.58-.44-.12-.32-.24-.45-.36-.72l-.46-1.04c-.11-.24-.39-.48-.44-.73-.07-.43-.2-.72-.48-1.04-.26-.75.22-1.06-.38-1.26l-.31-.64-.66-1.11c-.32-.54-.19-1.28-.09-1.89.28-.14.58-.1.88-.11l1.18-.04.38.1h.73c.68.3,1.38.16,2-.17l1.97-.15.84.04c.52.03,1.46.42,2.67-.41l.37-.03c.12-.22.09-.53-.15-.74l.13-.74.1-.29c.03-.07-.16-.14-.32-.19l.26-.41c.17-.27-.59-.89,0-1.01l.75-.16.91.22c.85.03,1.58.11,2.39.31l.19.5c.19.49.44.56.48.82.02.1-.14.27-.19.36-.08.49.33.89.7,1.19.04.27-.11.7-.33.86-.56.41-1.24.02-1.88.32-.08-.19-.19-.43-.32-.51-.16-.09-.52-.1-.62.03-.27.36-.16.83.17,1.14-.24.18-.35.34-.26.6.06.2.25.32.49.4.44.14.55.68.42,1.11-.06.2.08.56.1.75-.45.48.16.97.04,1.58-.08.42-.06.65.11,1.07.16.37,0,.94.14,1.36.09.27.39.62.37.9l-.03.58-.04.65c-.02.27,0,.54-.05.79-.11.47-.1.99-.08,1.49l-.23.36c-.07.1.08.37.17.5l-.39.84c-.15.32-.18.67-.25,1.04-.03.15-.15.44-.13.59l.15,1.08c.05.34-.61.78-.54.91l.17.33-.14.74c-.71.13-.81-.25-1.02-.19-.1.03-.2.22-.23.37-.03.06-.32.06-.4,0l-.77-.63-.51-.38ZM28.77,44.24l-.2-.5c.11-.58.16-1.12.16-1.68.4-.37.4-.91.07-1.32,0-.34.04-.81-.04-1.14-.13-.52-.24-.97-.29-1.49l-.08-.88c-.04-.44-.16-.83-.29-1.24.07-.44-.26-.71-.3-1.15-.02-.2-.04-.41-.11-.53-.07-.1-.32-.15-.45-.16l-.69-.04-.67.32c-.16.08-.31.21-.44.13l.29-.09-.59-.18c-.14-.04-.43-.13-.57-.11-.67.07-1.27.08-1.93-.05-1.35-.26-1.38.25-1.82.35l-.67.15c-.34.08-.52.35-.41.71l.32,1.08c.08.27.29.45.27.77-.07.74.64,1.54,1.2,2.03.09.38.21.73.38,1.05.14.27.2.57.44.78.47.4.46.87.86,1.2.23.19.43.36.49.63.12.48.42.78.73,1.13.34.38.65.74,1.16.93-.06.6.36.98.84,1.24l.62.87c.11.16.45.54.69.27.42-.46.5-1.2.49-1.81l.56-1.28Z"></path>
      <path class="cls-1" d="M42.98,37.84l-.68-.37.39-.29c.22-.43.47-.77,1-.9l.92.56c.2.12.63.09.86,0,.27-.71-.4-.91-.3-1.51s.17-1.26-.15-1.84l.15-.95c.26-.26.4-.44.54-.78l.56-.04c.44-.03.95-.37,1.41-.31.76.1,1.46.13,2.26-.26l-.96-.47-.83-1.25c-.28-.43-.5-.85-.66-1.33-.1-.28-.18-.4-.05-.71.07-.18.11-.61.28-.71.27-.15.43-.26.45-.58.04-.5.65-.35.7-.67.09-.55.38-1.28.78-1.4.03-.09.1-.36.16-.44.19-.15.3-.43.35-.7.03-.17.5-.33.32-.63-.3-.52.42-.47-.16-1.29-.31-.44-.47-.85-.64-1.32-.12-.34-.46-.66-.44-1.06,0-.26-.17-.5-.28-.68-.09-.42-.21-.61-.53-.88l-.85-.7-1.02-.91c-.23-.21-.56-.34-.52-.66.04-.05.06-.14.02-.15l-.27-.05c-.18-.04-.44-.05-.53-.16-.1-.12-.18-.35-.2-.5-.05-.44-.47-.33-.74-.32-.41-.24-.88-.74-.95-1.23l-.09-.6.03-.41c-.16-.14-.3-.34-.29-.53.02-.41-.17-.62-.35-.92l-.3-.5c.19-.57-.29-.8-.46-1.34-.02-.1.01-.37-.07-.43-.09-.06-.33-.13-.45-.14l-.1.55-.18.6c-.27-.1-.51-.09-.72.04l-.47.06c-.09.01-.29.03-.37,0-.09-.04-.18-.2-.25-.32l-.29-.23c.03-.23-.05-.47-.26-.55l-.68-.27c-.03-.3-.11-.5-.3-.69-.36-.37-.64-.86-1.02-1.2l-.82-.76-.92-.87c-.31-.29-.59-.61-.97-.81-.17-.09-.5-.2-.55-.36.05-.52-.26-.87-.17-1.38l1.05-.06.96.07c.05.72.51,1.19,1.07,1.54l.78.62c.29.23.55.42.78.72l.36.23c.29.46.7.8,1.31.83l.36-.98c.28-.24.44-.45.53-.86.28-.01.64-.02.94.05.25.06.62.46.73.7.17.35.3.71.62.96.71.56.39,1.25.81,1.56l.36,1.35.31,1.02c.17.57.38,1.03.74,1.51.19.25.26.67.36.97.17.51.64.65,1.05.91l.88.82.96.68c.24.17.46.38.67.59l.81.83c.3.3.46.53.53.98.06.37.48.64.65.96l.42.84.26.74.14.78c.06.35.24.61.43.94.13.22.13.64.21.89l.27.87c.04.13.13.35.1.45-.09.34-.54.43-.57.66-.02.13.07.34.1.49l.04.21c.02.08-.32.05-.52.22l-.1.75c-.49.25-.77.77-.67,1.34-.24.17-.88.17-.99.52l-.33,1,.37.48c.12.46.27,1.04.67,1.32.36.25.61.46.84.82l.8,1.2c.06.25.12.52.25.78l-1.1.22c-.16.21-.4.67-.67.6-.32-.08-.46-.05-.76-.05l-1.02-.02c-.32-.12-.63-.07-.85.17-.6.14-.91.72-.81,1.32l.16.9c.04.23.11.44.09.69-.02.35.06.69.11,1.02-.08.2-.36.49-.17.76.35.5.55,1.07.43,1.7-.16.14-.49.19-.69.26-.34.14-.6.28-.98.27l-.32-.51c-.23-.36-.43-.6-.86-.73-.75-.23-.97-.92-1.5-.66-.14-.27-.38-.56-.7-.73Z"></path>
      <path class="cls-1" d="M6.91,19.93c-.3.24-.41.69-.63,1.01l-.58.51c-.32.29-.93.37-1.16.78-.37.65,1.09.37,1.55.84.2.21.35.44.62.58.31.16.16.55.25.82s.51.67.27.98c-.4.36-.66,1.15-.43,1.37.28.27.66.28,1,.44l.77.37c.46.06.69.18.91.55.19.33.37.63.39,1.1-.94.12-1.53-.38-1.97.28l-1.35-.31c-.11-.03-.33.11-.42.18-.07-.12-.2-.41-.32-.48-.51-.25-1.01-.58-1.34-1.03.09-.09.22-.23.19-.29l-.17-.29c.09-.28.2-.56-.12-.83l.41-.66c.1-.17.08-.56.1-.81-.34-.31-.69-.5-1.12-.63-.39-.12-.81-.38-1.2-.46-.35-.07-.62-.12-.93-.22l-.8-.27-.38-.53c-.08-.79-.74-.75-.25-1.58.1-.18.22-.3.43-.28.39.04.69-.12,1.02-.29l.29-.15,1.15-.57c.24-.12.39-.27.6-.46.29-.26.89-.38,1.04-.79.14-.37.25-.66.45-1.02l-.11-.62c-.6-.65-.21-1-.51-1.36-.39-.47.42-.82-.27-1.83l.08-1.17c.03-.43.42-.9.63-1.51l.29-.87c.11-.38.36-.62.73-.66.25-.36.64-.38,1.01-.5l.91-.93c.64-.4,1.29-.35,1.59-.97.22-.46-.09-.95-.52-1.3-.1-.64-.24-1.23-.45-1.85l-.1-.51-.32-.82-.47-1.4c-.21-.62-.33-1.31.31-1.48.16-.05.55-.11.71-.02.26.15.57.35.78.54l.79.72c.23.21.5.42.77.57.48-.05.86.05,1.28.23.4-.08.76-.02,1.05.27.89.53,1.57.49,2.58,1.21.27.19.72.14,1.04.22.79.19,1.51.3,2.32.29.44,0,.94.08,1.34.21l.51.16c.12.04.31.04.37.1s.07.25.09.42l.87.38c.66.29.92.06,1.12.66.18.55.55.85.43.92l-.22.13c-.24.15-.35.5-.24.84-.18.02-.52.01-.69-.04-.18-.26-.31-.4-.61-.48-.39-.1-.29-.66-.8-.66-.37,0-.54-.22-.8-.41l-.53-.39c-.12-.09-.36-.06-.54-.04-.33.05-.66-.01-1.01-.05-.11-.01-.38.02-.49-.02-.25-.09-.51-.11-.8.03-.37.17-.86-.68-1.53-.2l-.82-.46c-.16-.09-.45-.13-.62-.2l-.79-.32-.86-.41c-.24-.11-.48-.18-.77-.21l-.55-.44-.83-.14c-.33.4,0,.98.07,1.43.06.37.09.52.3.79.26.34.36.83.56,1.24.35.71,1.28.66.64,1.17-.11.09-.07.42-.06.62,0,.14-.32.29-.47.29-.32,0-.37.18-.54.4-.25.32-.76.75-1.16.84-.38.09-.63.12-.93.29-.37.21-.63.46-.91.74l-.81.83c-.35.36-.73.96-.76,1.41l-.05.75c.41.83-.04,1.46.62,2.14-.5.54.2.95.23,1.65l.05,1.17c.01.31-.19.51-.41.69Z"></path>
      <path class="cls-1" d="M16.85,30.55l-1.27-.37-.49-.57c-.12-.14-.41-.38-.48-.54l-.47-1.21c.22-.16.37-.32.41-.6l.5-.36c.34-.25.43-.54.29-.98.14,0,.28.04.39.09.43.17.82-.08,1.17-.32.15-.07.55.09.6.24.05.13.08.45.18.52l.62.4c.1.46.33.85.55,1.24l.16.87-.85.61c-.25.54-.82,1.15-1.32,1.01Z"></path>
    </g>
  </g>
</svg>