<?xml version="1.0"?>
<svg fill="#d4fe01" id="Layer_1" data-name="Layer 1" xmlns="http://www.w3.org/2000/svg" viewBox="0 0 353.82 26.04">
  <defs>
    
  </defs>
  <g id="uYzD3i">
    <g>
      <path class="cls-1" d="M7.77,16.29l-.41,1.51c-.1.36-.35.95-.57,1.26l-.85,1.18-.33.63-1.45-.05c-.19,0-.56-.12-.68-.24-.14-.14-.19-.52-.16-.74l.25-1.92c.04-.29.47-.77.53-1.05l.13-.65c.07-.35.08-.78.2-1.12.11-.31.45-.68.46-.99.02-.72.17-1.31.32-1.99.11-.5.11-1.04.3-1.54.5-1.29-1.12-2.6.58-4.18.46-.42.89-.64,1.54-.42,1.3.45,1.99,2.51,2.55,3.94-.03.51.15,1,.51,1.37l.96,1.26c.22.29.49.58.78.83.17.14.33.71.73.49l.92-1.58c.36-.62,1.13-.98,1.5-1.58.31-.51.62-.88.99-1.34l.7-.89c.35-.18.52-.55.44-.9.74-.76.64-1.72,1.42-2.55.32-.34,1.15-.66,1.57-.44l1.08.56c.29.15.55.54.78.78.45.48.51.95.67,1.58.11.43.5.92.69,1.35l1.19,2.71c.37.84.7,1.67,1.13,2.47l1.05,1.96c.33.62.56,1.31.81,2,.04.29.05.92-.04,1.19l-.39,1.18c-.11.34-.18.43-.58.57-.33.12-1.12.23-1.25-.27-.25-.98-.58-1.87-1.29-2.65l-.84-1.15-1.31-1.77-.79-1.41-.69-1.21-.83-1.18c-.81.62-1.33,1.25-1.92,1.99-.16.2-.4.43-.51.66-.19.37-.42.63-.73.9-.16.24-.43.76-.5,1.04-.08.68-.26,1.19-.6,1.73-.04.13-.08.46-.19.53s-.4.18-.43.15c-.13-.29-.37-.31-.62-.29-.16.01-.31.22-.41.47-.56.06-1.09-.24-1.57-.49l-1.86-.93-1.36-.63-.84-.48c-.12-.07-.38-.15-.49-.09s-.25.28-.29.43Z"></path>
      <path class="cls-1" d="M238.09,16.72c.58.75,1.53.84,2.38.88.35.02.57,0,.87-.21l.83-.03c.6-.2,1.07-.31,1.71-.34.3-.02.89-.24,1.18-.16l1.45.39c.34.09.36.91.04,1.06l-1.12.5-1.9.68-.96.27c-.35.12-.71.19-1.08.23-.39.25-.82.43-1.29.53-.18.04-.4.06-.55.02l-.94-.24-.07.77c-.39-.08-.65-.26-.96-.53-.36-.31-.85-.49-1.28-.74-.48-.28-.75-.86-1.08-1.3-.36-.47-.63-.95-.76-1.55l-.35-1.62v-3.14c0-.96.34-1.85.54-2.76l.28-1.33c.41-1.32,1.39-2.33,2.53-3.07.46.03.97.13,1.36.06l.94-.17,1.9-.28,2.01-.1c.67-.03,1.25-.15,1.92-.03l1.64.07,1.25.37c.24.07.54.31.66.49.13.2.19.81-.07.87l-1.11.28c-.52.13-.92.21-1.42.39l-1.4.2c-.1.32-.29.64-.63.69l-1.98.3-2,.4-1.75.56c-.37.12-.47.51-.59.81l-.33.78,1.42-.03c.34,0,.87.43,1.25.18.26-.17.56-.36.88-.41l4.62-.77,1.54.03c.11,0,.36.08.42.17.11.17.21.83.16,1.24-.02.18-.32.35-.54.42-.8.23-1.36.85-2.34,1.01-1.03.17-1.86.12-2.57,1.2l-2.35.67-1.21.28-.73.18c-.73.18-.92,1.19-.43,1.81Z"></path>
      <path class="cls-1" d="M88.06,18.29c.71.32,1.55.5,2.29.49l2.41-.03,1.11.23c.2.04.26.35.2.55l-.29.95-1.47.47-3.07.66c-.05.16-.1.34-.17.42-.07.1-.41-.04-.55-.09l-2.65-.94c-1.1-.39-2.09-1.14-2.92-1.93l-.67-.64c-.74-.7-1.25-1.64-2.19-2.1-.3-.15-.56-.28-.58-.66-.03-.66.17-1.27.62-1.79l-.1-1.12v-1.79s.32-1.85.32-1.85c.1-.59.23-1.22.63-1.65,1.09-1.18.91-.92,2.05-.87.31.02.64-.23.85-.27l1.3-.28c.68-.15,1.36-.52,2.05-.61l2.33-.29,2.81-.18,1.91-.04c1.13-.03,2.84.67,2.7.95-.27.57-.91.7-1.5.79l-2.3.37c-1.25.2-2.51.34-3.64.84-.66.29-1.26.5-1.97.65l-.52.28c-.27-.03-.79-.08-.99.08-.44.35-.84.42-1.35.6l-1.01.36-.2,2.3c-.02.2-.07.7.18.7h1.94s2.74.14,2.74.14l1.2.02c.99.02,2.37.1,2.82.79.17.25.1.99-.15,1.17-1.02.73-1.76.55-2.92,1.29-1.33.85-3.01.16-3.15.71-.04.14.08.48.23.55l1.68.76Z"></path>
      <path class="cls-1" d="M264.95,18.23l-1.74-.41-1.55-.21-1.85-.53-.85-.26c-.61,1.22.25,2.37-.05,3.85-.37.17-.69.43-.91.71-.3.39-.73.07-1.01-.01-.6-.17-.8-.42-.9-.98l-.48-2.63c-.2-1.07-.32-2.12-.38-3.21l-.1-1.91-.11-2.88c-.04-1.17.26-2.13.8-3.13.31-.57.56-1.1,1.03-1.58.14-.14.33-.36.48-.39s.47.11.6.2l.79.55c.27.19.37.62.37.96l.65-.59,1.4-.89c.09-.06.26-.3.37-.32l1.85-.37c.71-.14,1.12.19,1.52.77l.77,1.12c.19.47.27,1.12.3,1.68-.06.32-.21.84-.39,1.1l-.74,1.05c-.34.48-.61.88-1.07,1.26l-1.35,1.13-1.25.98c-.06.24.34.46.56.53l1.31.41,1.54.42.92.25,1.02.28,1.19.32c.39.11.63.25.96.47l.88.59c.42-.04.72.12.82.47.08.26-.2.65-.55.71-.93.18-1.83-.06-2.78-.14l-.59-.04c-.24-.02-.56.07-.8.14-.3.08-.55,0-.68.54ZM258.61,10.82l2.42-1.71,1.07-1.23c.19-.21-.28-.9-.51-.72l-.99.73-.84.67-1.2.95.04,1.31Z"></path>
      <path class="cls-1" d="M67.04,14.71l3.19.59,2,.73c.43.15.74.66,1,1.07.21.32.11,1-.27,1.16l-2.41-.28-1.6-.04c-.26.55-.71.35-1.19.3l-2.22-.25-1.18-.08-.86-.11c-.51-.07-1.08.05-1.6.22-.1.31-.13.71-.07,1.02.1.58-.17.92-.41,1.4l-.36.73c-.33.33-.88.17-1.24.04l-.62-.23c-.41-.96-.53-1.99-.76-3.02l-.65-2.91-.77-2.46c-.22-.7-.24-1.47-.57-2.16-.13-.68-.16-1.36-.13-2.06-.33-1.21-.12-2.51.9-3.34.19-.15.72-.23.94-.21l.95.77c1.32,1.06,1.05,2.17,1.11,2.49l.28,1.42.35,1.75,1.41-1.06c.47-.36,1.01-.77,1.56-1,.43-.18.69-.31,1.02-.63.44-.42,1.07-.8,1.65-1.01.71-.25,1.24-.59,1.88-.95l1.47-.82c.49-.27,1.28-.22,1.84-.23.51-.01,1.41.74,1.38,1.28s-.92.34-1.67.89l-1.34.97c-.39.28-.67.61-1.12.78l-1.1.44c-.26.1-.58.54-.82.72l-1.44,1.07-1.65,1.06c-.27.34-.51.49-1,.67.88,1,2.8,1.06,4.1,1.3Z"></path>
      <path class="cls-1" d="M301.66,19.76l-1.24.38-1.94.43-.91.11h-.25c-.05,0-.04.17-.05.21l-.87.54c-.14.09-.49-.08-.65-.14-.65.02-1.22-.15-1.56-.76-.12-.21-.72-.44-.47-.82.21-.32.38-.64.28-1.05l-.79-3.12-.22-2.46v-1.61s.1-1.5.1-1.5l.55-2.91c.19-1.02,1-1.69,2.04-1.78.81-.07.97-.73,2.54-.55l1.55.18c.7.08,1.34.25,1.97.59l1.46.78c.53.28,1.11.79,1.49,1.25l.69.83,1.23,1.68c.62.84,1.13,2.25,1.28,3.33l.14.99c.07.52-.15,1.3-.5,1.65l-1.03,1.01-.93.75-.87.67-.73.34c-.78.37-1.45.71-2.31.97ZM302.99,16.66l.92-.71c.42-.33.67-.55.9-1.04.33-.73.4-1.5-.06-2.23-.73-1.17-.69-2.02-1.13-1.83l-1.37-1.16-.81-.47c-.81-.47-1.71-.55-2.64-.69-.47-.07-1.16-.04-1.42.48-.22.43-.29,1.04-.37,1.53l-.14.84-.07.81.03,4.43.09,1.87,1.42-.2,2.08-.45c.94-.21,1.79-.55,2.59-1.17Z"></path>
      <path class="cls-1" d="M338.65,14.8l.68-1.21c-.75-.21-1.35-.47-1.89-.83-.13-.09-.41.1-.53.23-.24-.1-.54-.29-.77-.47l-2.61-2.02-1.36-1.14-.7-.74-.63-.85c-.5-.68-.6-1.93.13-2.73.53-.57,1.38-.6,2-.07l1.31,1.1,2.19,2.22,1.62,1.29c.18.14.28.38.4.62.55.73,1.23.68,1.81,1.47.06.08.26.21.36.22.11,0,.25-.17.35-.3l2.34-3.12,2-2.49,1.18-1.34c.35-.39.76-.62,1.21-.9.33-.2.63-.57,1.07-.59,1.11-.04,1.34.61,1.76,1.4.15.28.43.7.47.96.12.82-.54,1.17-.97,1.61s-.79.75-1.24,1.1l-1.42,2.14-1.23,1.1-1.22,1.32c-.5.54-.87,2.21-2.47,3.46-.39.3-.56.71-.81,1.12l-.99,1.64-.83,1.17-.73,1.27c-.41.72-.78,1.95-2.2,2.25l-.35-1.1c-.65-.47.03-2.37.45-3.51l.32-1.65.3-.71,1.02-1.89Z"></path>
      <path class="cls-1" d="M151.64,16.99c1.22.43-1.46,2.01-2.79,1.76-.65-.13-1.28.05-1.54.73l-3.37-.21-1.03.13c-.11.47-.26.93-.59,1.22-.47.4-1.71-.3-1.94-.99l-.69-2-.36-1.15c-.18-.58-.31-1.3-.35-1.91l-.1-1.61-.1-1.21c-.09-1.06.04-2.12.15-3.19.2-1.92,3-4.08,5.07-4.33,1.55-.86,2.94-.06,3.91,1.38.23.34.63.79.68,1.16l.2,1.37c.22,1.47-.71,2.73-1.67,3.82l-.65.74c-.72.81-1.78.98-2.75,1.96-.11.11-.27.32-.25.44s.28.26.44.31l1.34.42,2.4.21,1.43.22,1.58.39.98.35ZM142.53,11.77c.28-.18.75-.51.95-.76l1.15-1.46c.41-.52.62-1.13.51-1.78-.5-.31-.99-.18-1.49.09l-.84.47-.17,1.35-.24,1.24c-.06.29-.32.63.12.86Z"></path>
      <path class="cls-1" d="M163.71,17.98c-.38-.92-.74-1.79-.92-2.78l-.28-1.52-.19-1.71-.06-1.02c-.02-.32-.06-.64-.14-.92l-3.19.8-1.7.59-1.76.45c-.25.06-.5.2-.76.35-.37-.12-.69-.53-.99-.79-.41-.36-.6-.6-.71-1.15-.36-1.77,1.2-2.08,2.82-2.67l1.79-.66,2.25-.49c.54-.12,1.11-.25,1.65-.23.37.02.7.04,1.04-.08.4-.14.78-.21,1.21-.22l2.21-.09.88-.11,1.26-.08,6.44-.39c.66-.04,1.23.02,1.81.29l2.44.03c.09.01.22.33.17.42s-.19.23-.29.27l-1.33.44c-.59-.22-1.14-.19-1.66.1l-2.77.4-1.22.27-1.25.27c-.42,0-.73.09-1.06.37-.51.12-1.41.17-1.75.58-.31.37-.4.64-.92.75l-.74.16-.06,1.15v2.21s.3,1.9.3,1.9l.58,2.16.39,1.11c.21.6.44,1.27.4,1.89s-1.03,1.61-1.29,1.71c-.1.04-.32-.12-.42-.17-.68-.35-1.04-.86-1.31-1.53l-.85-2.06Z"></path>
      <path class="cls-1" d="M283.42,15.43l-1.47,2.96-1.17,2.5c-.2.43-.29.85-.64,1.18l-.57.52-.49-1.01-.53-.18c-.22-1.01-.41-2.08-.2-3.13l.37-1.24c.07-.24.14-.48.15-.71l.81-2.03.43-1.14-.38.22-1.68-.72-1.32-.79-.87-.72c-.5-.37-1.22-.47-1.5-1.12-.16-.37-.47-.67-.69-.98-.56-.79-.52-1.81-.61-2.74s.41-1.72,1.34-1.9c.37-.08.78.21.97.5l.69,1.03c.36.54.52,1.32,1.01,1.78l1.05.99,1.14.63c.54.3.95.72,1.54.89l.97.29,1.13-1.89c.7-1.17,1.42-2.33,2.5-3.19l.8-.64c.2-.16.68-.23.96-.35.36.29.59.62.8,1.02.19.35.54.71.54,1.15s-.39.71-.58,1.03l-.89,1.49c-.28.47-.53.86-.8,1.32l-.78,1.32-1.42,2.58-.59,1.09Z"></path>
      <g>
        <path class="cls-1" d="M208.41,17.11c.78-.16,2.01-.08,2.65.33.3.19.52.74.21.97l-.95.71-1.82.47c-.45.11-1,.24-1.3.57l-.16.72c-.76.18-1.51.33-2.3.37-.5.02-.92.14-1.38.24-.41.09-.96-.16-1.4.28l-.4-.66-.9-.32-.88-.51c-.48-.28-.47-1.02-.72-1.45-.83-1.46-.24-2.35-.58-3.78l-.8-.8c-.18-.18-.32-.72-.36-.96l.13-.86c.07-.45.2-.51.57-.74s.79-.63,1.05-.99c.27-.39.19-1.01.33-1.45.11-.35.29-.9-.03-1.12-.52-.37-.77-.75-.61-1.39.09-.34.18-.85.44-1.1.43-.42,1.04-.45,1.56-.66.71-.29,1.33-.5,2.08-.65l1.16-.23c.48-.09.93-.05,1.38-.12l1.69-.28c1.35-.22,2.66-.2,4.04.06l1.72.33c.17-.17.56-.34.69-.16.28.38.24.96.03,1.34l-2.03.23c-.51.06-.97.09-1.45.22l-1.15.32-1.52.44-1.41.36c-.82.21-1.46.5-2.14,1.02l-.99.46c-.32.15.03.78.04,1.05l.05.85c.62.19,1.18.22,1.8.08h1.03c1.32-.22,2.52-.17,3.74.35.29.12.54.21.65.46s.14.68-.01.82l-1.1.4-2.12.64c-.27.08-.51.51-.65.81l-2,.36c-.85.11-1.53.54-2.02,1.2l-.21,2.46c.75.15,1.43.14,2.17.04l1.96-.27,2.24-.44Z"></path>
        <path class="cls-1" d="M229.7,11.21l-.9,2.22-1.52,2.59-.89,1.49-.74,1.13c-.44.67-.98,1.08-1.69,1.46l-.72.54-2-.91c-.63-.28-.91-.76-1.35-1.26l-.9-1.03c-.64-1.35-.97-2.7-1.06-4.17v-.98s.19-1.37.19-1.37l.33-1.54.4-1.37.56-1.46c.22-.59,1.67-1.42,2.15-1.02.19.16.44.54.59.74,1.13.48,1.38,2.36.52,3.39l-.51,1.62-.4,1.17c-.19.56.13,1.32.14,1.92,0,.75.14,1.41.78,1.85.25-.06.58-.22.76-.42l2.03-2.32.8-.89c1.21-1.34,1.97-4.34,2.36-6.31.3-.29.66-.54,1.04-.74.56.42.9,1,.84,1.71-.1,1.33-.29,2.72-.79,3.96Z"></path>
      </g>
      <path class="cls-1" d="M41.2,18.01l-2.11.23c-.93.1-1.47.37-2.01,1.12l-.63.88c-.61.86-1.08.77-2.34.71-.21-.14-.37-.61-.49-.8-.3-.48-.36-.82-.08-1.36l.47-.91c.2-.39.53-.84.48-1.29-.08-.66-.1-1.34.4-1.83.19-.18.66-.52.67-.77l.04-1.2c.1-.32.14-.51.17-.81l.2-2.08c.36-.65.22-1.58.78-2.58.34-.62,1.83.05,2.48-.21.36-.15.3-.68.45-.98.32-.67,1.07-1.31,1.84-1.4.87-.1,2.21,1.46,2.64,2.49.13.3.49.56.65.82l1.01,1.7.5.71,1.08,1.52.69.91.62.77c.94,1.18,2.91,3.03,2.03,4.4-.12.19-.23.72-.43.81l-.95.46c-1.18-.25-.94-1.19-1.13-1.42l-1.26-1.52c-.26-.32-.63-.31-.96-.08-.62.45-1.59.28-2.75.95-.31.18-.6.74-.99.74h-1.08ZM44.52,14.67c.11.04.31.04.36-.04.22-.36-.38-.44-.91-1.34-.24-.42-.78-.65-1.07-1.02l-.85-1.08-1.03-1.01-.74,1.3-.55,1.14c-.26.55-.6.99-.42,1.62l.82.12c.88.23,1.67.26,2.55.09.66.22,1.02-.05,1.84.22Z"></path>
      <path class="cls-1" d="M319.78,17.25c-.33-.26-.66-.24-1.08-.19l-.96.12-.73-.15c-.41-.08-1.07.16-1.39.46-1.08.98-.5,2.86-2.07,3.1l-1.13-.45c-.51-.21-.56-.67-.74-1.06-.26-.56-.24-.9.16-1.37.56-.66.63-1.61.77-2.45.1-.6.38-1.18.65-1.72l.55-1.77.72-1.86c.4-1.02.91-1.97,1.57-2.82.56-.72,1.52-1.14,2.04-.61l.25.26c.28.29.82-1.33,2.09-1.57.41-.08.93.21,1.16.52l.61.81c.68.91,1.14,1.94,1.63,2.97l1.21,2.57,1.76,2.36c.2.26.7.4.84.75.6,1.54,1.36,1.61,1.19,2.66l-.1.61c-.3.23-.48.41-.75.71-.16.18-.58.03-.8-.11-.58-.36-.92-.77-1.36-1.3l-.65-.59-.79-.77-1.14.53-.45-.17-2.11.34-.94.19ZM321.02,14.05c.53.08.84.14,1.16-.22l-.99-1.49-.67-1.13c-.22-.37-.54-.79-1.01-.76l-1.34,2.12c-.14.23-.29.38-.18.62.24.53,1.24.04,2.19.9l.83-.04Z"></path>
      <path class="cls-1" d="M123.93,18.55c-1.14-.21-2.41-.29-2.81.64-.21.49-.47,1-.79,1.45-.42.59-.92.71-1.64.54-.33-.08-.75-.14-.89-.51l.29-.54c-.15-.3-.34-.9-.18-1.15.25-.37.37-.64.53-1.02l.35-.83.67-1.85.7-1.17.78-1.55.54-1.44.43-.69c.58-1.18,1.04-2.32,1.44-3.56.36-1.11-.12-1.61.91-2.11.47-.23,1.26-.54,1.67-.03l.86,1.05c.36.44.72,1,.93,1.54.49,1.27.95,2.5,1.65,3.69l1.41,2.44c.38.66.97,1.04,1.48,1.55l.64.63.73,1.8.42,1.08-.96,1c-.62.09-1.16-.1-1.42-.64l-1.88-1.62-.8.04c-.67.03-1.27.2-1.92.38-.44.12-.73.26-1.08.55-.28.23-.81.19-1.16.25-.32.06-.59.11-.91.05ZM125.24,14.52c.7.14,1.27.32,1.97.18-.36-.63-.66-1.12-1.08-1.57-.26-.28-.53-.51-.67-.92-.08-.23-.51-.55-.65-.27l-.36.73c-.19.39-.4.7-.5,1.09l-.27.11c-.07.03-.03.29.04.31l.24.07,1.28.26Z"></path>
    </g>
  </g>
</svg>